<?xml version="1.0" encoding="UTF-8" standalone="no"?>
<!DOCTYPE svg PUBLIC "-//W3C//DTD SVG 1.1//EN"
 "http://www.w3.org/Graphics/SVG/1.1/DTD/svg11.dtd">
<!-- Generated by graphviz version 2.47.0 (20210316.0004)
 -->
<!-- Title: dependencies Pages: 1 -->
<svg width="4561pt" height="284pt"
 viewBox="0.00 0.00 4561.00 284.00" xmlns="http://www.w3.org/2000/svg" xmlns:xlink="http://www.w3.org/1999/xlink">
<g id="graph0" class="graph" transform="scale(1 1) rotate(0) translate(4 280)">
<title>dependencies</title>
<polygon fill="white" stroke="transparent" points="-4,4 -4,-280 4557,-280 4557,4 -4,4"/>
<text text-anchor="start" x="2255.51" y="-42.4" font-family="Times-12" font-weight="bold" font-size="14.00">Legend</text>
<polygon fill="#ffffb3" stroke="transparent" points="2042.5,-10 2042.5,-30 2062.5,-30 2062.5,-10 2042.5,-10"/>
<text text-anchor="start" x="2066.13" y="-15.4" font-family="Times-12" font-size="14.00"> &#160;Declarations</text>
<polygon fill="#8dd3c7" stroke="transparent" points="2155.5,-10 2155.5,-30 2175.5,-30 2175.5,-10 2155.5,-10"/>
<text text-anchor="start" x="2179.23" y="-15.4" font-family="Times-12" font-size="14.00"> &#160;Module</text>
<polygon fill="#80b1d3" stroke="transparent" points="2241.5,-10 2241.5,-30 2261.5,-30 2261.5,-10 2241.5,-10"/>
<text text-anchor="start" x="2265.28" y="-15.4" font-family="Times-12" font-size="14.00"> &#160;Bootstrap</text>
<polygon fill="#fdb462" stroke="transparent" points="2338.5,-10 2338.5,-30 2358.5,-30 2358.5,-10 2338.5,-10"/>
<text text-anchor="start" x="2362.17" y="-15.4" font-family="Times-12" font-size="14.00"> &#160;Providers</text>
<polygon fill="#fb8072" stroke="transparent" points="2434.5,-10 2434.5,-30 2454.5,-30 2454.5,-10 2434.5,-10"/>
<text text-anchor="start" x="2458.23" y="-15.4" font-family="Times-12" font-size="14.00"> &#160;Exports</text>
<g id="clust1" class="cluster">
<title>cluster_AppModule</title>
<polygon fill="none" stroke="black" stroke-dasharray="1,5" points="8,-70 8,-268 4545,-268 4545,-70 8,-70"/>
</g>
<g id="clust28" class="cluster">
<title>cluster_AppModule_bootstrap</title>
<polygon fill="none" stroke="black" points="1863,-208 1863,-260 1987,-260 1987,-208 1863,-208"/>
</g>
<g id="clust29" class="cluster">
<title>cluster_AppModule_providers</title>
<polygon fill="none" stroke="black" points="4199,-78 4199,-130 4537,-130 4537,-78 4199,-78"/>
</g>
<g id="clust2" class="cluster">
<title>cluster_AppModule_declarations</title>
<polygon fill="none" stroke="black" points="168,-78 168,-130 4191,-130 4191,-78 168,-78"/>
</g>
<g id="clust26" class="cluster">
<title>cluster_AppModule_imports</title>
<polygon fill="none" stroke="black" points="16,-78 16,-130 160,-130 160,-78 16,-78"/>
</g>
<!-- AdminDashboardComponent -->
<g id="node1" class="node">
<title>AdminDashboardComponent</title>
<polygon fill="#ffffb3" stroke="black" points="4183.36,-122 4002.64,-122 4002.64,-86 4183.36,-86 4183.36,-122"/>
<text text-anchor="middle" x="4093" y="-99.8" font-family="Times,serif" font-size="14.00">AdminDashboardComponent</text>
</g>
<!-- AppModule -->
<g id="node24" class="node">
<title>AppModule</title>
<polygon fill="#8dd3c7" stroke="black" points="1966.66,-187 1963.66,-191 1942.66,-191 1939.66,-187 1883.34,-187 1883.34,-151 1966.66,-151 1966.66,-187"/>
<text text-anchor="middle" x="1925" y="-164.8" font-family="Times,serif" font-size="14.00">AppModule</text>
</g>
<!-- AdminDashboardComponent&#45;&gt;AppModule -->
<g id="edge1" class="edge">
<title>AdminDashboardComponent&#45;&gt;AppModule</title>
<path fill="none" stroke="black" d="M4093,-122.16C4093,-144.35 4093,-179 4093,-179 4093,-179 1976.85,-179 1976.85,-179"/>
<polygon fill="black" stroke="black" points="1976.85,-175.5 1966.85,-179 1976.85,-182.5 1976.85,-175.5"/>
</g>
<!-- AnswerCheckGroupComponent -->
<g id="node2" class="node">
<title>AnswerCheckGroupComponent</title>
<polygon fill="#ffffb3" stroke="black" points="3984.4,-122 3787.6,-122 3787.6,-86 3984.4,-86 3984.4,-122"/>
<text text-anchor="middle" x="3886" y="-99.8" font-family="Times,serif" font-size="14.00">AnswerCheckGroupComponent</text>
</g>
<!-- AnswerCheckGroupComponent&#45;&gt;AppModule -->
<g id="edge2" class="edge">
<title>AnswerCheckGroupComponent&#45;&gt;AppModule</title>
<path fill="none" stroke="black" d="M3886,-122.17C3886,-143.5 3886,-176 3886,-176 3886,-176 1976.87,-176 1976.87,-176"/>
<polygon fill="black" stroke="black" points="1976.87,-172.5 1966.87,-176 1976.87,-179.5 1976.87,-172.5"/>
</g>
<!-- AnswerOpenTextComponent -->
<g id="node3" class="node">
<title>AnswerOpenTextComponent</title>
<polygon fill="#ffffb3" stroke="black" points="3769.34,-122 3588.66,-122 3588.66,-86 3769.34,-86 3769.34,-122"/>
<text text-anchor="middle" x="3679" y="-99.8" font-family="Times,serif" font-size="14.00">AnswerOpenTextComponent</text>
</g>
<!-- AnswerOpenTextComponent&#45;&gt;AppModule -->
<g id="edge3" class="edge">
<title>AnswerOpenTextComponent&#45;&gt;AppModule</title>
<path fill="none" stroke="black" d="M3679,-122.03C3679,-142.77 3679,-174 3679,-174 3679,-174 1977.06,-174 1977.06,-174"/>
<polygon fill="black" stroke="black" points="1977.06,-170.5 1967.06,-174 1977.06,-177.5 1977.06,-170.5"/>
</g>
<!-- AnswerOpenTextCurrencyComponent -->
<g id="node4" class="node">
<title>AnswerOpenTextCurrencyComponent</title>
<polygon fill="#ffffb3" stroke="black" points="3570.43,-122 3337.57,-122 3337.57,-86 3570.43,-86 3570.43,-122"/>
<text text-anchor="middle" x="3454" y="-99.8" font-family="Times,serif" font-size="14.00">AnswerOpenTextCurrencyComponent</text>
</g>
<!-- AnswerOpenTextCurrencyComponent&#45;&gt;AppModule -->
<g id="edge4" class="edge">
<title>AnswerOpenTextCurrencyComponent&#45;&gt;AppModule</title>
<path fill="none" stroke="black" d="M3454,-122.31C3454,-142.15 3454,-171 3454,-171 3454,-171 1976.69,-171 1976.69,-171"/>
<polygon fill="black" stroke="black" points="1976.69,-167.5 1966.69,-171 1976.69,-174.5 1976.69,-167.5"/>
</g>
<!-- AnswerOpenTextNumberComponent -->
<g id="node5" class="node">
<title>AnswerOpenTextNumberComponent</title>
<polygon fill="#ffffb3" stroke="black" points="3319.22,-122 3092.78,-122 3092.78,-86 3319.22,-86 3319.22,-122"/>
<text text-anchor="middle" x="3206" y="-99.8" font-family="Times,serif" font-size="14.00">AnswerOpenTextNumberComponent</text>
</g>
<!-- AnswerOpenTextNumberComponent&#45;&gt;AppModule -->
<g id="edge5" class="edge">
<title>AnswerOpenTextNumberComponent&#45;&gt;AppModule</title>
<path fill="none" stroke="black" d="M3206,-122.17C3206,-141.09 3206,-168 3206,-168 3206,-168 1976.89,-168 1976.89,-168"/>
<polygon fill="black" stroke="black" points="1976.89,-164.5 1966.89,-168 1976.89,-171.5 1976.89,-164.5"/>
</g>
<!-- AnswerOpenTextOnehundredpcComponent -->
<g id="node6" class="node">
<title>AnswerOpenTextOnehundredpcComponent</title>
<polygon fill="#ffffb3" stroke="black" points="3074.76,-122 2811.24,-122 2811.24,-86 3074.76,-86 3074.76,-122"/>
<text text-anchor="middle" x="2943" y="-99.8" font-family="Times,serif" font-size="14.00">AnswerOpenTextOnehundredpcComponent</text>
</g>
<!-- AnswerOpenTextOnehundredpcComponent&#45;&gt;AppModule -->
<g id="edge6" class="edge">
<title>AnswerOpenTextOnehundredpcComponent&#45;&gt;AppModule</title>
<path fill="none" stroke="black" d="M2943,-122.3C2943,-140.27 2943,-165 2943,-165 2943,-165 1976.8,-165 1976.8,-165"/>
<polygon fill="black" stroke="black" points="1976.8,-161.5 1966.8,-165 1976.8,-168.5 1976.8,-161.5"/>
</g>
<!-- AnswerOpenTextYearComponent -->
<g id="node7" class="node">
<title>AnswerOpenTextYearComponent</title>
<polygon fill="#ffffb3" stroke="black" points="2793.04,-122 2584.96,-122 2584.96,-86 2793.04,-86 2793.04,-122"/>
<text text-anchor="middle" x="2689" y="-99.8" font-family="Times,serif" font-size="14.00">AnswerOpenTextYearComponent</text>
</g>
<!-- AnswerOpenTextYearComponent&#45;&gt;AppModule -->
<g id="edge7" class="edge">
<title>AnswerOpenTextYearComponent&#45;&gt;AppModule</title>
<path fill="none" stroke="black" d="M2689,-122.02C2689,-139.37 2689,-163 2689,-163 2689,-163 1976.89,-163 1976.89,-163"/>
<polygon fill="black" stroke="black" points="1976.89,-159.5 1966.89,-163 1976.89,-166.5 1976.89,-159.5"/>
</g>
<!-- AnswerRadioGroupComponent -->
<g id="node8" class="node">
<title>AnswerRadioGroupComponent</title>
<polygon fill="#ffffb3" stroke="black" points="2567.07,-122 2372.93,-122 2372.93,-86 2567.07,-86 2567.07,-122"/>
<text text-anchor="middle" x="2470" y="-99.8" font-family="Times,serif" font-size="14.00">AnswerRadioGroupComponent</text>
</g>
<!-- AnswerRadioGroupComponent&#45;&gt;AppModule -->
<g id="edge8" class="edge">
<title>AnswerRadioGroupComponent&#45;&gt;AppModule</title>
<path fill="none" stroke="black" d="M2470,-122.03C2470,-138.4 2470,-160 2470,-160 2470,-160 1976.86,-160 1976.86,-160"/>
<polygon fill="black" stroke="black" points="1976.86,-156.5 1966.86,-160 1976.86,-163.5 1976.86,-156.5"/>
</g>
<!-- AppComponent -->
<g id="node9" class="node">
<title>AppComponent</title>
<polygon fill="#ffffb3" stroke="black" points="2354.94,-122 2249.06,-122 2249.06,-86 2354.94,-86 2354.94,-122"/>
<text text-anchor="middle" x="2302" y="-99.8" font-family="Times,serif" font-size="14.00">AppComponent</text>
</g>
<!-- AppComponent&#45;&gt;AppModule -->
<g id="edge9" class="edge">
<title>AppComponent&#45;&gt;AppModule</title>
<path fill="none" stroke="black" d="M2302,-122.24C2302,-137.57 2302,-157 2302,-157 2302,-157 1976.79,-157 1976.79,-157"/>
<polygon fill="black" stroke="black" points="1976.79,-153.5 1966.79,-157 1976.79,-160.5 1976.79,-153.5"/>
</g>
<!-- BasicTableComponent -->
<g id="node10" class="node">
<title>BasicTableComponent</title>
<polygon fill="#ffffb3" stroke="black" points="2231.31,-122 2086.69,-122 2086.69,-86 2231.31,-86 2231.31,-122"/>
<text text-anchor="middle" x="2159" y="-99.8" font-family="Times,serif" font-size="14.00">BasicTableComponent</text>
</g>
<!-- BasicTableComponent&#45;&gt;AppModule -->
<g id="edge10" class="edge">
<title>BasicTableComponent&#45;&gt;AppModule</title>
<path fill="none" stroke="black" d="M2159,-122.05C2159,-136.37 2159,-154 2159,-154 2159,-154 1976.83,-154 1976.83,-154"/>
<polygon fill="black" stroke="black" points="1976.83,-150.5 1966.83,-154 1976.83,-157.5 1976.83,-150.5"/>
</g>
<!-- ContainerComponent -->
<g id="node11" class="node">
<title>ContainerComponent</title>
<polygon fill="#ffffb3" stroke="black" points="2069.04,-122 1932.96,-122 1932.96,-86 2069.04,-86 2069.04,-122"/>
<text text-anchor="middle" x="2001" y="-99.8" font-family="Times,serif" font-size="14.00">ContainerComponent</text>
</g>
<!-- ContainerComponent&#45;&gt;AppModule -->
<g id="edge11" class="edge">
<title>ContainerComponent&#45;&gt;AppModule</title>
<path fill="none" stroke="black" d="M1949.78,-122.11C1949.78,-122.11 1949.78,-140.99 1949.78,-140.99"/>
<polygon fill="black" stroke="black" points="1946.28,-140.99 1949.78,-150.99 1953.28,-140.99 1946.28,-140.99"/>
</g>
<!-- EditUserComponent -->
<g id="node12" class="node">
<title>EditUserComponent</title>
<polygon fill="#ffffb3" stroke="black" points="1914.59,-122 1783.41,-122 1783.41,-86 1914.59,-86 1914.59,-122"/>
<text text-anchor="middle" x="1849" y="-99.8" font-family="Times,serif" font-size="14.00">EditUserComponent</text>
</g>
<!-- EditUserComponent&#45;&gt;AppModule -->
<g id="edge12" class="edge">
<title>EditUserComponent&#45;&gt;AppModule</title>
<path fill="none" stroke="black" d="M1898.86,-122.11C1898.86,-122.11 1898.86,-140.99 1898.86,-140.99"/>
<polygon fill="black" stroke="black" points="1895.36,-140.99 1898.86,-150.99 1902.36,-140.99 1895.36,-140.99"/>
</g>
<!-- ErrorComponent -->
<g id="node13" class="node">
<title>ErrorComponent</title>
<polygon fill="#ffffb3" stroke="black" points="1765.37,-122 1654.63,-122 1654.63,-86 1765.37,-86 1765.37,-122"/>
<text text-anchor="middle" x="1710" y="-99.8" font-family="Times,serif" font-size="14.00">ErrorComponent</text>
</g>
<!-- ErrorComponent&#45;&gt;AppModule -->
<g id="edge13" class="edge">
<title>ErrorComponent&#45;&gt;AppModule</title>
<path fill="none" stroke="black" d="M1710,-122.05C1710,-136.37 1710,-154 1710,-154 1710,-154 1873.29,-154 1873.29,-154"/>
<polygon fill="black" stroke="black" points="1873.29,-157.5 1883.29,-154 1873.29,-150.5 1873.29,-157.5"/>
</g>
<!-- HomeComponent -->
<g id="node14" class="node">
<title>HomeComponent</title>
<polygon fill="#ffffb3" stroke="black" points="1636.55,-122 1521.45,-122 1521.45,-86 1636.55,-86 1636.55,-122"/>
<text text-anchor="middle" x="1579" y="-99.8" font-family="Times,serif" font-size="14.00">HomeComponent</text>
</g>
<!-- HomeComponent&#45;&gt;AppModule -->
<g id="edge14" class="edge">
<title>HomeComponent&#45;&gt;AppModule</title>
<path fill="none" stroke="black" d="M1579,-122.24C1579,-137.57 1579,-157 1579,-157 1579,-157 1873.26,-157 1873.26,-157"/>
<polygon fill="black" stroke="black" points="1873.26,-160.5 1883.26,-157 1873.26,-153.5 1873.26,-160.5"/>
</g>
<!-- LoadingComponent -->
<g id="node15" class="node">
<title>LoadingComponent</title>
<polygon fill="#ffffb3" stroke="black" points="1502.99,-122 1375.01,-122 1375.01,-86 1502.99,-86 1502.99,-122"/>
<text text-anchor="middle" x="1439" y="-99.8" font-family="Times,serif" font-size="14.00">LoadingComponent</text>
</g>
<!-- LoadingComponent&#45;&gt;AppModule -->
<g id="edge15" class="edge">
<title>LoadingComponent&#45;&gt;AppModule</title>
<path fill="none" stroke="black" d="M1439,-122.03C1439,-138.4 1439,-160 1439,-160 1439,-160 1873.14,-160 1873.14,-160"/>
<polygon fill="black" stroke="black" points="1873.14,-163.5 1883.14,-160 1873.14,-156.5 1873.14,-163.5"/>
</g>
<!-- LoginComponent -->
<g id="node16" class="node">
<title>LoginComponent</title>
<polygon fill="#ffffb3" stroke="black" points="1357.28,-122 1242.72,-122 1242.72,-86 1357.28,-86 1357.28,-122"/>
<text text-anchor="middle" x="1300" y="-99.8" font-family="Times,serif" font-size="14.00">LoginComponent</text>
</g>
<!-- LoginComponent&#45;&gt;AppModule -->
<g id="edge16" class="edge">
<title>LoginComponent&#45;&gt;AppModule</title>
<path fill="none" stroke="black" d="M1300,-122.02C1300,-139.37 1300,-163 1300,-163 1300,-163 1873.02,-163 1873.02,-163"/>
<polygon fill="black" stroke="black" points="1873.02,-166.5 1883.02,-163 1873.02,-159.5 1873.02,-166.5"/>
</g>
<!-- MainContainerComponent -->
<g id="node17" class="node">
<title>MainContainerComponent</title>
<polygon fill="#ffffb3" stroke="black" points="1225.09,-122 1058.91,-122 1058.91,-86 1225.09,-86 1225.09,-122"/>
<text text-anchor="middle" x="1142" y="-99.8" font-family="Times,serif" font-size="14.00">MainContainerComponent</text>
</g>
<!-- MainContainerComponent&#45;&gt;AppModule -->
<g id="edge17" class="edge">
<title>MainContainerComponent&#45;&gt;AppModule</title>
<path fill="none" stroke="black" d="M1142,-122.3C1142,-140.27 1142,-165 1142,-165 1142,-165 1873.18,-165 1873.18,-165"/>
<polygon fill="black" stroke="black" points="1873.18,-168.5 1883.18,-165 1873.18,-161.5 1873.18,-168.5"/>
</g>
<!-- MenuComponent -->
<g id="node18" class="node">
<title>MenuComponent</title>
<polygon fill="#ffffb3" stroke="black" points="1040.99,-122 927.01,-122 927.01,-86 1040.99,-86 1040.99,-122"/>
<text text-anchor="middle" x="984" y="-99.8" font-family="Times,serif" font-size="14.00">MenuComponent</text>
</g>
<!-- MenuComponent&#45;&gt;AppModule -->
<g id="edge18" class="edge">
<title>MenuComponent&#45;&gt;AppModule</title>
<path fill="none" stroke="black" d="M984,-122.17C984,-141.09 984,-168 984,-168 984,-168 1873.05,-168 1873.05,-168"/>
<polygon fill="black" stroke="black" points="1873.05,-171.5 1883.05,-168 1873.05,-164.5 1873.05,-171.5"/>
</g>
<!-- NavbarComponent -->
<g id="node19" class="node">
<title>NavbarComponent</title>
<polygon fill="#ffffb3" stroke="black" points="909.03,-122 786.97,-122 786.97,-86 909.03,-86 909.03,-122"/>
<text text-anchor="middle" x="848" y="-99.8" font-family="Times,serif" font-size="14.00">NavbarComponent</text>
</g>
<!-- NavbarComponent&#45;&gt;AppModule -->
<g id="edge19" class="edge">
<title>NavbarComponent&#45;&gt;AppModule</title>
<path fill="none" stroke="black" d="M848,-122.31C848,-142.15 848,-171 848,-171 848,-171 1873.11,-171 1873.11,-171"/>
<polygon fill="black" stroke="black" points="1873.11,-174.5 1883.11,-171 1873.11,-167.5 1873.11,-174.5"/>
</g>
<!-- RegisterComponent -->
<g id="node20" class="node">
<title>RegisterComponent</title>
<polygon fill="#ffffb3" stroke="black" points="768.98,-122 641.02,-122 641.02,-86 768.98,-86 768.98,-122"/>
<text text-anchor="middle" x="705" y="-99.8" font-family="Times,serif" font-size="14.00">RegisterComponent</text>
</g>
<!-- RegisterComponent&#45;&gt;AppModule -->
<g id="edge20" class="edge">
<title>RegisterComponent&#45;&gt;AppModule</title>
<path fill="none" stroke="black" d="M705,-122.03C705,-142.77 705,-174 705,-174 705,-174 1873,-174 1873,-174"/>
<polygon fill="black" stroke="black" points="1873,-177.5 1883,-174 1873,-170.5 1873,-177.5"/>
</g>
<!-- SmartTableComponent -->
<g id="node21" class="node">
<title>SmartTableComponent</title>
<polygon fill="#ffffb3" stroke="black" points="623.14,-122 476.86,-122 476.86,-86 623.14,-86 623.14,-122"/>
<text text-anchor="middle" x="550" y="-99.8" font-family="Times,serif" font-size="14.00">SmartTableComponent</text>
</g>
<!-- SmartTableComponent&#45;&gt;AppModule -->
<g id="edge21" class="edge">
<title>SmartTableComponent&#45;&gt;AppModule</title>
<path fill="none" stroke="black" d="M550,-122.17C550,-143.5 550,-176 550,-176 550,-176 1873.1,-176 1873.1,-176"/>
<polygon fill="black" stroke="black" points="1873.1,-179.5 1883.1,-176 1873.1,-172.5 1873.1,-179.5"/>
</g>
<!-- TableComponent -->
<g id="node22" class="node">
<title>TableComponent</title>
<polygon fill="#ffffb3" stroke="black" points="458.7,-122 345.3,-122 345.3,-86 458.7,-86 458.7,-122"/>
<text text-anchor="middle" x="402" y="-99.8" font-family="Times,serif" font-size="14.00">TableComponent</text>
</g>
<!-- TableComponent&#45;&gt;AppModule -->
<g id="edge22" class="edge">
<title>TableComponent&#45;&gt;AppModule</title>
<path fill="none" stroke="black" d="M402,-122.16C402,-144.35 402,-179 402,-179 402,-179 1873.08,-179 1873.08,-179"/>
<polygon fill="black" stroke="black" points="1873.08,-182.5 1883.08,-179 1873.08,-175.5 1873.08,-182.5"/>
</g>
<!-- ViewDetailsComponent -->
<g id="node23" class="node">
<title>ViewDetailsComponent</title>
<polygon fill="#ffffb3" stroke="black" points="327.8,-122 176.2,-122 176.2,-86 327.8,-86 327.8,-122"/>
<text text-anchor="middle" x="252" y="-99.8" font-family="Times,serif" font-size="14.00">ViewDetailsComponent</text>
</g>
<!-- ViewDetailsComponent&#45;&gt;AppModule -->
<g id="edge23" class="edge">
<title>ViewDetailsComponent&#45;&gt;AppModule</title>
<path fill="none" stroke="black" d="M252,-122.09C252,-145.13 252,-182 252,-182 252,-182 1873.23,-182 1873.23,-182"/>
<polygon fill="black" stroke="black" points="1873.23,-185.5 1883.23,-182 1873.23,-178.5 1873.23,-185.5"/>
</g>
<!-- AppComponent  -->
<g id="node26" class="node">
<title>AppComponent </title>
<polygon fill="#80b1d3" stroke="black" points="1979.44,-252 1870.56,-252 1870.56,-216 1979.44,-216 1979.44,-252"/>
<text text-anchor="middle" x="1925" y="-229.8" font-family="Times,serif" font-size="14.00">AppComponent </text>
</g>
<!-- AppModule&#45;&gt;AppComponent  -->
<g id="edge25" class="edge">
<title>AppModule&#45;&gt;AppComponent </title>
<path fill="none" stroke="black" stroke-dasharray="1,5" d="M1925,-187.11C1925,-187.11 1925,-205.99 1925,-205.99"/>
<polygon fill="black" stroke="black" points="1921.5,-205.99 1925,-215.99 1928.5,-205.99 1921.5,-205.99"/>
</g>
<!-- AppRoutingModule -->
<g id="node25" class="node">
<title>AppRoutingModule</title>
<polygon fill="#8dd3c7" stroke="black" points="152.27,-122 149.27,-126 128.27,-126 125.27,-122 23.73,-122 23.73,-86 152.27,-86 152.27,-122"/>
<text text-anchor="middle" x="88" y="-99.8" font-family="Times,serif" font-size="14.00">AppRoutingModule</text>
</g>
<!-- AppRoutingModule&#45;&gt;AppModule -->
<g id="edge24" class="edge">
<title>AppRoutingModule&#45;&gt;AppModule</title>
<path fill="none" stroke="black" d="M88,-122.38C88,-146.28 88,-185 88,-185 88,-185 1873.18,-185 1873.18,-185"/>
<polygon fill="black" stroke="black" points="1873.18,-188.5 1883.18,-185 1873.18,-181.5 1873.18,-188.5"/>
</g>
<!-- ApiCallerService -->
<g id="node27" class="node">
<title>ApiCallerService</title>
<ellipse fill="#fdb462" stroke="black" cx="4451" cy="-104" rx="78.14" ry="18"/>
<text text-anchor="middle" x="4451" y="-99.8" font-family="Times,serif" font-size="14.00">ApiCallerService</text>
</g>
<!-- ApiCallerService&#45;&gt;AppModule -->
<g id="edge26" class="edge">
<title>ApiCallerService&#45;&gt;AppModule</title>
<path fill="none" stroke="black" d="M4451,-122.38C4451,-146.28 4451,-185 4451,-185 4451,-185 1976.74,-185 1976.74,-185"/>
<polygon fill="black" stroke="black" points="1976.74,-181.5 1966.74,-185 1976.74,-188.5 1976.74,-181.5"/>
</g>
<!-- ErrorInterceptor -->
<g id="node28" class="node">
<title>ErrorInterceptor</title>
<ellipse fill="#fdb462" stroke="black" cx="4281" cy="-104" rx="73.53" ry="18"/>
<text text-anchor="middle" x="4281" y="-99.8" font-family="Times,serif" font-size="14.00">ErrorInterceptor</text>
</g>
<!-- ErrorInterceptor&#45;&gt;AppModule -->
<g id="edge27" class="edge">
<title>ErrorInterceptor&#45;&gt;AppModule</title>
<path fill="none" stroke="black" d="M4281,-122.09C4281,-145.13 4281,-182 4281,-182 4281,-182 1976.89,-182 1976.89,-182"/>
<polygon fill="black" stroke="black" points="1976.89,-178.5 1966.89,-182 1976.89,-185.5 1976.89,-178.5"/>
</g>
</g>
</svg>
