<?xml version="1.0" encoding="UTF-8" standalone="no"?>
<!DOCTYPE svg PUBLIC "-//W3C//DTD SVG 1.1//EN"
 "http://www.w3.org/Graphics/SVG/1.1/DTD/svg11.dtd">
<!-- Generated by graphviz version 2.47.0 (20210316.0004)
 -->
<!-- Title: dependencies Pages: 1 -->
<svg width="4561pt" height="284pt"
 viewBox="0.00 0.00 4561.00 284.00" xmlns="http://www.w3.org/2000/svg" xmlns:xlink="http://www.w3.org/1999/xlink">
<g id="graph0" class="graph" transform="scale(1 1) rotate(0) translate(4 280)">
<title>dependencies</title>
<polygon fill="white" stroke="transparent" points="-4,4 -4,-280 4557,-280 4557,4 -4,4"/>
<text text-anchor="start" x="2255.51" y="-42.4" font-family="Times-12" font-weight="bold" font-size="14.00">Legend</text>
<polygon fill="#ffffb3" stroke="transparent" points="2042.5,-10 2042.5,-30 2062.5,-30 2062.5,-10 2042.5,-10"/>
<text text-anchor="start" x="2066.13" y="-15.4" font-family="Times-12" font-size="14.00"> &#160;Declarations</text>
<polygon fill="#8dd3c7" stroke="transparent" points="2155.5,-10 2155.5,-30 2175.5,-30 2175.5,-10 2155.5,-10"/>
<text text-anchor="start" x="2179.23" y="-15.4" font-family="Times-12" font-size="14.00"> &#160;Module</text>
<polygon fill="#80b1d3" stroke="transparent" points="2241.5,-10 2241.5,-30 2261.5,-30 2261.5,-10 2241.5,-10"/>
<text text-anchor="start" x="2265.28" y="-15.4" font-family="Times-12" font-size="14.00"> &#160;Bootstrap</text>
<polygon fill="#fdb462" stroke="transparent" points="2338.5,-10 2338.5,-30 2358.5,-30 2358.5,-10 2338.5,-10"/>
<text text-anchor="start" x="2362.17" y="-15.4" font-family="Times-12" font-size="14.00"> &#160;Providers</text>
<polygon fill="#fb8072" stroke="transparent" points="2434.5,-10 2434.5,-30 2454.5,-30 2454.5,-10 2434.5,-10"/>
<text text-anchor="start" x="2458.23" y="-15.4" font-family="Times-12" font-size="14.00"> &#160;Exports</text>
<g id="clust1" class="cluster">
<title>cluster_AppModule</title>
<polygon fill="none" stroke="black" stroke-dasharray="1,5" points="8,-70 8,-268 4545,-268 4545,-70 8,-70"/>
</g>
<g id="clust2" class="cluster">
<title>cluster_AppModule_declarations</title>
<polygon fill="none" stroke="black" points="514,-78 514,-130 4537,-130 4537,-78 514,-78"/>
</g>
<g id="clust26" class="cluster">
<title>cluster_AppModule_imports</title>
<polygon fill="none" stroke="black" points="362,-78 362,-130 506,-130 506,-78 362,-78"/>
</g>
<g id="clust28" class="cluster">
<title>cluster_AppModule_bootstrap</title>
<polygon fill="none" stroke="black" points="1928,-208 1928,-260 2052,-260 2052,-208 1928,-208"/>
</g>
<g id="clust29" class="cluster">
<title>cluster_AppModule_providers</title>
<polygon fill="none" stroke="black" points="16,-78 16,-130 354,-130 354,-78 16,-78"/>
</g>
<!-- AdminDashboardComponent -->
<g id="node1" class="node">
<title>AdminDashboardComponent</title>
<polygon fill="#ffffb3" stroke="black" points="4529.36,-122 4348.64,-122 4348.64,-86 4529.36,-86 4529.36,-122"/>
<text text-anchor="middle" x="4439" y="-99.8" font-family="Times,serif" font-size="14.00">AdminDashboardComponent</text>
</g>
<!-- AppModule -->
<g id="node24" class="node">
<title>AppModule</title>
<polygon fill="#8dd3c7" stroke="black" points="2031.66,-187 2028.66,-191 2007.66,-191 2004.66,-187 1948.34,-187 1948.34,-151 2031.66,-151 2031.66,-187"/>
<text text-anchor="middle" x="1990" y="-164.8" font-family="Times,serif" font-size="14.00">AppModule</text>
</g>
<!-- AdminDashboardComponent&#45;&gt;AppModule -->
<g id="edge1" class="edge">
<title>AdminDashboardComponent&#45;&gt;AppModule</title>
<path fill="none" stroke="black" d="M4439,-122.38C4439,-146.28 4439,-185 4439,-185 4439,-185 2041.74,-185 2041.74,-185"/>
<polygon fill="black" stroke="black" points="2041.74,-181.5 2031.74,-185 2041.74,-188.5 2041.74,-181.5"/>
</g>
<!-- AnswerCheckGroupComponent -->
<g id="node2" class="node">
<title>AnswerCheckGroupComponent</title>
<polygon fill="#ffffb3" stroke="black" points="4330.4,-122 4133.6,-122 4133.6,-86 4330.4,-86 4330.4,-122"/>
<text text-anchor="middle" x="4232" y="-99.8" font-family="Times,serif" font-size="14.00">AnswerCheckGroupComponent</text>
</g>
<!-- AnswerCheckGroupComponent&#45;&gt;AppModule -->
<g id="edge2" class="edge">
<title>AnswerCheckGroupComponent&#45;&gt;AppModule</title>
<path fill="none" stroke="black" d="M4232,-122.09C4232,-145.13 4232,-182 4232,-182 4232,-182 2041.8,-182 2041.8,-182"/>
<polygon fill="black" stroke="black" points="2041.8,-178.5 2031.8,-182 2041.8,-185.5 2041.8,-178.5"/>
</g>
<!-- AnswerOpenTextComponent -->
<g id="node3" class="node">
<title>AnswerOpenTextComponent</title>
<polygon fill="#ffffb3" stroke="black" points="4115.34,-122 3934.66,-122 3934.66,-86 4115.34,-86 4115.34,-122"/>
<text text-anchor="middle" x="4025" y="-99.8" font-family="Times,serif" font-size="14.00">AnswerOpenTextComponent</text>
</g>
<!-- AnswerOpenTextComponent&#45;&gt;AppModule -->
<g id="edge3" class="edge">
<title>AnswerOpenTextComponent&#45;&gt;AppModule</title>
<path fill="none" stroke="black" d="M4025,-122.16C4025,-144.35 4025,-179 4025,-179 4025,-179 2042.04,-179 2042.04,-179"/>
<polygon fill="black" stroke="black" points="2042.04,-175.5 2032.04,-179 2042.04,-182.5 2042.04,-175.5"/>
</g>
<!-- AnswerOpenTextCurrencyComponent -->
<g id="node4" class="node">
<title>AnswerOpenTextCurrencyComponent</title>
<polygon fill="#ffffb3" stroke="black" points="3916.43,-122 3683.57,-122 3683.57,-86 3916.43,-86 3916.43,-122"/>
<text text-anchor="middle" x="3800" y="-99.8" font-family="Times,serif" font-size="14.00">AnswerOpenTextCurrencyComponent</text>
</g>
<!-- AnswerOpenTextCurrencyComponent&#45;&gt;AppModule -->
<g id="edge4" class="edge">
<title>AnswerOpenTextCurrencyComponent&#45;&gt;AppModule</title>
<path fill="none" stroke="black" d="M3800,-122.17C3800,-143.5 3800,-176 3800,-176 3800,-176 2042.08,-176 2042.08,-176"/>
<polygon fill="black" stroke="black" points="2042.08,-172.5 2032.08,-176 2042.08,-179.5 2042.08,-172.5"/>
</g>
<!-- AnswerOpenTextNumberComponent -->
<g id="node5" class="node">
<title>AnswerOpenTextNumberComponent</title>
<polygon fill="#ffffb3" stroke="black" points="3665.22,-122 3438.78,-122 3438.78,-86 3665.22,-86 3665.22,-122"/>
<text text-anchor="middle" x="3552" y="-99.8" font-family="Times,serif" font-size="14.00">AnswerOpenTextNumberComponent</text>
</g>
<!-- AnswerOpenTextNumberComponent&#45;&gt;AppModule -->
<g id="edge5" class="edge">
<title>AnswerOpenTextNumberComponent&#45;&gt;AppModule</title>
<path fill="none" stroke="black" d="M3552,-122.03C3552,-142.77 3552,-174 3552,-174 3552,-174 2041.78,-174 2041.78,-174"/>
<polygon fill="black" stroke="black" points="2041.78,-170.5 2031.78,-174 2041.78,-177.5 2041.78,-170.5"/>
</g>
<!-- AnswerOpenTextOnehundredpcComponent -->
<g id="node6" class="node">
<title>AnswerOpenTextOnehundredpcComponent</title>
<polygon fill="#ffffb3" stroke="black" points="3420.76,-122 3157.24,-122 3157.24,-86 3420.76,-86 3420.76,-122"/>
<text text-anchor="middle" x="3289" y="-99.8" font-family="Times,serif" font-size="14.00">AnswerOpenTextOnehundredpcComponent</text>
</g>
<!-- AnswerOpenTextOnehundredpcComponent&#45;&gt;AppModule -->
<g id="edge6" class="edge">
<title>AnswerOpenTextOnehundredpcComponent&#45;&gt;AppModule</title>
<path fill="none" stroke="black" d="M3289,-122.31C3289,-142.15 3289,-171 3289,-171 3289,-171 2041.75,-171 2041.75,-171"/>
<polygon fill="black" stroke="black" points="2041.75,-167.5 2031.75,-171 2041.75,-174.5 2041.75,-167.5"/>
</g>
<!-- AnswerOpenTextYearComponent -->
<g id="node7" class="node">
<title>AnswerOpenTextYearComponent</title>
<polygon fill="#ffffb3" stroke="black" points="3139.04,-122 2930.96,-122 2930.96,-86 3139.04,-86 3139.04,-122"/>
<text text-anchor="middle" x="3035" y="-99.8" font-family="Times,serif" font-size="14.00">AnswerOpenTextYearComponent</text>
</g>
<!-- AnswerOpenTextYearComponent&#45;&gt;AppModule -->
<g id="edge7" class="edge">
<title>AnswerOpenTextYearComponent&#45;&gt;AppModule</title>
<path fill="none" stroke="black" d="M3035,-122.17C3035,-141.09 3035,-168 3035,-168 3035,-168 2041.93,-168 2041.93,-168"/>
<polygon fill="black" stroke="black" points="2041.93,-164.5 2031.93,-168 2041.93,-171.5 2041.93,-164.5"/>
</g>
<!-- AnswerRadioGroupComponent -->
<g id="node8" class="node">
<title>AnswerRadioGroupComponent</title>
<polygon fill="#ffffb3" stroke="black" points="2913.07,-122 2718.93,-122 2718.93,-86 2913.07,-86 2913.07,-122"/>
<text text-anchor="middle" x="2816" y="-99.8" font-family="Times,serif" font-size="14.00">AnswerRadioGroupComponent</text>
</g>
<!-- AnswerRadioGroupComponent&#45;&gt;AppModule -->
<g id="edge8" class="edge">
<title>AnswerRadioGroupComponent&#45;&gt;AppModule</title>
<path fill="none" stroke="black" d="M2816,-122.3C2816,-140.27 2816,-165 2816,-165 2816,-165 2041.81,-165 2041.81,-165"/>
<polygon fill="black" stroke="black" points="2041.81,-161.5 2031.81,-165 2041.81,-168.5 2041.81,-161.5"/>
</g>
<!-- AppComponent -->
<g id="node9" class="node">
<title>AppComponent</title>
<polygon fill="#ffffb3" stroke="black" points="2700.94,-122 2595.06,-122 2595.06,-86 2700.94,-86 2700.94,-122"/>
<text text-anchor="middle" x="2648" y="-99.8" font-family="Times,serif" font-size="14.00">AppComponent</text>
</g>
<!-- AppComponent&#45;&gt;AppModule -->
<g id="edge9" class="edge">
<title>AppComponent&#45;&gt;AppModule</title>
<path fill="none" stroke="black" d="M2648,-122.02C2648,-139.37 2648,-163 2648,-163 2648,-163 2041.66,-163 2041.66,-163"/>
<polygon fill="black" stroke="black" points="2041.66,-159.5 2031.66,-163 2041.66,-166.5 2041.66,-159.5"/>
</g>
<!-- BasicTableComponent -->
<g id="node10" class="node">
<title>BasicTableComponent</title>
<polygon fill="#ffffb3" stroke="black" points="2577.31,-122 2432.69,-122 2432.69,-86 2577.31,-86 2577.31,-122"/>
<text text-anchor="middle" x="2505" y="-99.8" font-family="Times,serif" font-size="14.00">BasicTableComponent</text>
</g>
<!-- BasicTableComponent&#45;&gt;AppModule -->
<g id="edge10" class="edge">
<title>BasicTableComponent&#45;&gt;AppModule</title>
<path fill="none" stroke="black" d="M2505,-122.03C2505,-138.4 2505,-160 2505,-160 2505,-160 2041.71,-160 2041.71,-160"/>
<polygon fill="black" stroke="black" points="2041.71,-156.5 2031.71,-160 2041.71,-163.5 2041.71,-156.5"/>
</g>
<!-- ContainerComponent -->
<g id="node11" class="node">
<title>ContainerComponent</title>
<polygon fill="#ffffb3" stroke="black" points="2415.04,-122 2278.96,-122 2278.96,-86 2415.04,-86 2415.04,-122"/>
<text text-anchor="middle" x="2347" y="-99.8" font-family="Times,serif" font-size="14.00">ContainerComponent</text>
</g>
<!-- ContainerComponent&#45;&gt;AppModule -->
<g id="edge11" class="edge">
<title>ContainerComponent&#45;&gt;AppModule</title>
<path fill="none" stroke="black" d="M2347,-122.24C2347,-137.57 2347,-157 2347,-157 2347,-157 2042,-157 2042,-157"/>
<polygon fill="black" stroke="black" points="2042,-153.5 2032,-157 2042,-160.5 2042,-153.5"/>
</g>
<!-- EditUserComponent -->
<g id="node12" class="node">
<title>EditUserComponent</title>
<polygon fill="#ffffb3" stroke="black" points="2260.59,-122 2129.41,-122 2129.41,-86 2260.59,-86 2260.59,-122"/>
<text text-anchor="middle" x="2195" y="-99.8" font-family="Times,serif" font-size="14.00">EditUserComponent</text>
</g>
<!-- EditUserComponent&#45;&gt;AppModule -->
<g id="edge12" class="edge">
<title>EditUserComponent&#45;&gt;AppModule</title>
<path fill="none" stroke="black" d="M2195,-122.05C2195,-136.37 2195,-154 2195,-154 2195,-154 2041.98,-154 2041.98,-154"/>
<polygon fill="black" stroke="black" points="2041.98,-150.5 2031.98,-154 2041.98,-157.5 2041.98,-150.5"/>
</g>
<!-- ErrorComponent -->
<g id="node13" class="node">
<title>ErrorComponent</title>
<polygon fill="#ffffb3" stroke="black" points="2111.37,-122 2000.63,-122 2000.63,-86 2111.37,-86 2111.37,-122"/>
<text text-anchor="middle" x="2056" y="-99.8" font-family="Times,serif" font-size="14.00">ErrorComponent</text>
</g>
<!-- ErrorComponent&#45;&gt;AppModule -->
<g id="edge13" class="edge">
<title>ErrorComponent&#45;&gt;AppModule</title>
<path fill="none" stroke="black" d="M2016.2,-122.11C2016.2,-122.11 2016.2,-140.99 2016.2,-140.99"/>
<polygon fill="black" stroke="black" points="2012.7,-140.99 2016.2,-150.99 2019.7,-140.99 2012.7,-140.99"/>
</g>
<!-- HomeComponent -->
<g id="node14" class="node">
<title>HomeComponent</title>
<polygon fill="#ffffb3" stroke="black" points="1982.55,-122 1867.45,-122 1867.45,-86 1982.55,-86 1982.55,-122"/>
<text text-anchor="middle" x="1925" y="-99.8" font-family="Times,serif" font-size="14.00">HomeComponent</text>
</g>
<!-- HomeComponent&#45;&gt;AppModule -->
<g id="edge14" class="edge">
<title>HomeComponent&#45;&gt;AppModule</title>
<path fill="none" stroke="black" d="M1965.47,-122.11C1965.47,-122.11 1965.47,-140.99 1965.47,-140.99"/>
<polygon fill="black" stroke="black" points="1961.97,-140.99 1965.47,-150.99 1968.97,-140.99 1961.97,-140.99"/>
</g>
<!-- LoadingComponent -->
<g id="node15" class="node">
<title>LoadingComponent</title>
<polygon fill="#ffffb3" stroke="black" points="1848.99,-122 1721.01,-122 1721.01,-86 1848.99,-86 1848.99,-122"/>
<text text-anchor="middle" x="1785" y="-99.8" font-family="Times,serif" font-size="14.00">LoadingComponent</text>
</g>
<!-- LoadingComponent&#45;&gt;AppModule -->
<g id="edge15" class="edge">
<title>LoadingComponent&#45;&gt;AppModule</title>
<path fill="none" stroke="black" d="M1785,-122.05C1785,-136.37 1785,-154 1785,-154 1785,-154 1938.02,-154 1938.02,-154"/>
<polygon fill="black" stroke="black" points="1938.02,-157.5 1948.02,-154 1938.02,-150.5 1938.02,-157.5"/>
</g>
<!-- LoginComponent -->
<g id="node16" class="node">
<title>LoginComponent</title>
<polygon fill="#ffffb3" stroke="black" points="1703.28,-122 1588.72,-122 1588.72,-86 1703.28,-86 1703.28,-122"/>
<text text-anchor="middle" x="1646" y="-99.8" font-family="Times,serif" font-size="14.00">LoginComponent</text>
</g>
<!-- LoginComponent&#45;&gt;AppModule -->
<g id="edge16" class="edge">
<title>LoginComponent&#45;&gt;AppModule</title>
<path fill="none" stroke="black" d="M1646,-122.24C1646,-137.57 1646,-157 1646,-157 1646,-157 1938.16,-157 1938.16,-157"/>
<polygon fill="black" stroke="black" points="1938.16,-160.5 1948.16,-157 1938.16,-153.5 1938.16,-160.5"/>
</g>
<!-- MainContainerComponent -->
<g id="node17" class="node">
<title>MainContainerComponent</title>
<polygon fill="#ffffb3" stroke="black" points="1571.09,-122 1404.91,-122 1404.91,-86 1571.09,-86 1571.09,-122"/>
<text text-anchor="middle" x="1488" y="-99.8" font-family="Times,serif" font-size="14.00">MainContainerComponent</text>
</g>
<!-- MainContainerComponent&#45;&gt;AppModule -->
<g id="edge17" class="edge">
<title>MainContainerComponent&#45;&gt;AppModule</title>
<path fill="none" stroke="black" d="M1488,-122.03C1488,-138.4 1488,-160 1488,-160 1488,-160 1938.06,-160 1938.06,-160"/>
<polygon fill="black" stroke="black" points="1938.06,-163.5 1948.06,-160 1938.06,-156.5 1938.06,-163.5"/>
</g>
<!-- MenuComponent -->
<g id="node18" class="node">
<title>MenuComponent</title>
<polygon fill="#ffffb3" stroke="black" points="1386.99,-122 1273.01,-122 1273.01,-86 1386.99,-86 1386.99,-122"/>
<text text-anchor="middle" x="1330" y="-99.8" font-family="Times,serif" font-size="14.00">MenuComponent</text>
</g>
<!-- MenuComponent&#45;&gt;AppModule -->
<g id="edge18" class="edge">
<title>MenuComponent&#45;&gt;AppModule</title>
<path fill="none" stroke="black" d="M1330,-122.02C1330,-139.37 1330,-163 1330,-163 1330,-163 1938.21,-163 1938.21,-163"/>
<polygon fill="black" stroke="black" points="1938.21,-166.5 1948.21,-163 1938.21,-159.5 1938.21,-166.5"/>
</g>
<!-- NavbarComponent -->
<g id="node19" class="node">
<title>NavbarComponent</title>
<polygon fill="#ffffb3" stroke="black" points="1255.03,-122 1132.97,-122 1132.97,-86 1255.03,-86 1255.03,-122"/>
<text text-anchor="middle" x="1194" y="-99.8" font-family="Times,serif" font-size="14.00">NavbarComponent</text>
</g>
<!-- NavbarComponent&#45;&gt;AppModule -->
<g id="edge19" class="edge">
<title>NavbarComponent&#45;&gt;AppModule</title>
<path fill="none" stroke="black" d="M1194,-122.3C1194,-140.27 1194,-165 1194,-165 1194,-165 1938.32,-165 1938.32,-165"/>
<polygon fill="black" stroke="black" points="1938.32,-168.5 1948.32,-165 1938.32,-161.5 1938.32,-168.5"/>
</g>
<!-- RegisterComponent -->
<g id="node20" class="node">
<title>RegisterComponent</title>
<polygon fill="#ffffb3" stroke="black" points="1114.98,-122 987.02,-122 987.02,-86 1114.98,-86 1114.98,-122"/>
<text text-anchor="middle" x="1051" y="-99.8" font-family="Times,serif" font-size="14.00">RegisterComponent</text>
</g>
<!-- RegisterComponent&#45;&gt;AppModule -->
<g id="edge20" class="edge">
<title>RegisterComponent&#45;&gt;AppModule</title>
<path fill="none" stroke="black" d="M1051,-122.17C1051,-141.09 1051,-168 1051,-168 1051,-168 1938.14,-168 1938.14,-168"/>
<polygon fill="black" stroke="black" points="1938.14,-171.5 1948.14,-168 1938.14,-164.5 1938.14,-171.5"/>
</g>
<!-- SmartTableComponent -->
<g id="node21" class="node">
<title>SmartTableComponent</title>
<polygon fill="#ffffb3" stroke="black" points="969.14,-122 822.86,-122 822.86,-86 969.14,-86 969.14,-122"/>
<text text-anchor="middle" x="896" y="-99.8" font-family="Times,serif" font-size="14.00">SmartTableComponent</text>
</g>
<!-- SmartTableComponent&#45;&gt;AppModule -->
<g id="edge21" class="edge">
<title>SmartTableComponent&#45;&gt;AppModule</title>
<path fill="none" stroke="black" d="M896,-122.31C896,-142.15 896,-171 896,-171 896,-171 1938.12,-171 1938.12,-171"/>
<polygon fill="black" stroke="black" points="1938.12,-174.5 1948.12,-171 1938.12,-167.5 1938.12,-174.5"/>
</g>
<!-- TableComponent -->
<g id="node22" class="node">
<title>TableComponent</title>
<polygon fill="#ffffb3" stroke="black" points="804.7,-122 691.3,-122 691.3,-86 804.7,-86 804.7,-122"/>
<text text-anchor="middle" x="748" y="-99.8" font-family="Times,serif" font-size="14.00">TableComponent</text>
</g>
<!-- TableComponent&#45;&gt;AppModule -->
<g id="edge22" class="edge">
<title>TableComponent&#45;&gt;AppModule</title>
<path fill="none" stroke="black" d="M748,-122.03C748,-142.77 748,-174 748,-174 748,-174 1938.32,-174 1938.32,-174"/>
<polygon fill="black" stroke="black" points="1938.32,-177.5 1948.32,-174 1938.32,-170.5 1938.32,-177.5"/>
</g>
<!-- ViewDetailsComponent -->
<g id="node23" class="node">
<title>ViewDetailsComponent</title>
<polygon fill="#ffffb3" stroke="black" points="673.8,-122 522.2,-122 522.2,-86 673.8,-86 673.8,-122"/>
<text text-anchor="middle" x="598" y="-99.8" font-family="Times,serif" font-size="14.00">ViewDetailsComponent</text>
</g>
<!-- ViewDetailsComponent&#45;&gt;AppModule -->
<g id="edge23" class="edge">
<title>ViewDetailsComponent&#45;&gt;AppModule</title>
<path fill="none" stroke="black" d="M598,-122.17C598,-143.5 598,-176 598,-176 598,-176 1938.34,-176 1938.34,-176"/>
<polygon fill="black" stroke="black" points="1938.34,-179.5 1948.34,-176 1938.34,-172.5 1938.34,-179.5"/>
</g>
<!-- AppComponent  -->
<g id="node26" class="node">
<title>AppComponent </title>
<polygon fill="#80b1d3" stroke="black" points="2044.44,-252 1935.56,-252 1935.56,-216 2044.44,-216 2044.44,-252"/>
<text text-anchor="middle" x="1990" y="-229.8" font-family="Times,serif" font-size="14.00">AppComponent </text>
</g>
<!-- AppModule&#45;&gt;AppComponent  -->
<g id="edge25" class="edge">
<title>AppModule&#45;&gt;AppComponent </title>
<path fill="none" stroke="black" stroke-dasharray="1,5" d="M1990,-187.11C1990,-187.11 1990,-205.99 1990,-205.99"/>
<polygon fill="black" stroke="black" points="1986.5,-205.99 1990,-215.99 1993.5,-205.99 1986.5,-205.99"/>
</g>
<!-- AppRoutingModule -->
<g id="node25" class="node">
<title>AppRoutingModule</title>
<polygon fill="#8dd3c7" stroke="black" points="498.27,-122 495.27,-126 474.27,-126 471.27,-122 369.73,-122 369.73,-86 498.27,-86 498.27,-122"/>
<text text-anchor="middle" x="434" y="-99.8" font-family="Times,serif" font-size="14.00">AppRoutingModule</text>
</g>
<!-- AppRoutingModule&#45;&gt;AppModule -->
<g id="edge24" class="edge">
<title>AppRoutingModule&#45;&gt;AppModule</title>
<path fill="none" stroke="black" d="M434,-122.16C434,-144.35 434,-179 434,-179 434,-179 1937.98,-179 1937.98,-179"/>
<polygon fill="black" stroke="black" points="1937.98,-182.5 1947.98,-179 1937.98,-175.5 1937.98,-182.5"/>
</g>
<!-- ApiCallerService -->
<g id="node27" class="node">
<title>ApiCallerService</title>
<ellipse fill="#fdb462" stroke="black" cx="268" cy="-104" rx="78.14" ry="18"/>
<text text-anchor="middle" x="268" y="-99.8" font-family="Times,serif" font-size="14.00">ApiCallerService</text>
</g>
<!-- ApiCallerService&#45;&gt;AppModule -->
<g id="edge26" class="edge">
<title>ApiCallerService&#45;&gt;AppModule</title>
<path fill="none" stroke="black" d="M268,-122.09C268,-145.13 268,-182 268,-182 268,-182 1938.29,-182 1938.29,-182"/>
<polygon fill="black" stroke="black" points="1938.29,-185.5 1948.29,-182 1938.29,-178.5 1938.29,-185.5"/>
</g>
<!-- ErrorInterceptor -->
<g id="node28" class="node">
<title>ErrorInterceptor</title>
<ellipse fill="#fdb462" stroke="black" cx="98" cy="-104" rx="73.53" ry="18"/>
<text text-anchor="middle" x="98" y="-99.8" font-family="Times,serif" font-size="14.00">ErrorInterceptor</text>
</g>
<!-- ErrorInterceptor&#45;&gt;AppModule -->
<g id="edge27" class="edge">
<title>ErrorInterceptor&#45;&gt;AppModule</title>
<path fill="none" stroke="black" d="M98,-122.38C98,-146.28 98,-185 98,-185 98,-185 1938.28,-185 1938.28,-185"/>
<polygon fill="black" stroke="black" points="1938.28,-188.5 1948.28,-185 1938.28,-181.5 1938.28,-188.5"/>
</g>
</g>
</svg>
